<svg width="64" height="81" viewBox="0 0 64 81" fill="none" xmlns="http://www.w3.org/2000/svg">
<path d="M35.1357 0.87655C33.2214 -0.292183 30.8071 -0.292183 28.8929 0.87655C25.4071 3.00022 23.25 3.57034 19.1643 3.48482C16.9214 3.42781 14.8357 4.6393 13.75 6.60619C11.7929 10.1837 10.2071 11.7657 6.62143 13.7184C4.65 14.7873 3.45 16.8825 3.49286 19.1202C3.59286 23.1965 3.00714 25.3487 0.878572 28.8264C-0.292857 30.7362 -0.292857 33.145 0.878572 35.0549C3.00714 38.5326 3.57857 40.6847 3.49286 44.761C3.43571 46.9987 4.65 49.0796 6.62143 50.1629C9.77857 51.8875 11.3786 53.3127 13.0643 56.0778L6.10714 69.9173C5.26429 71.6134 5.95 73.6658 7.63572 74.5067L19.9214 80.6354C21.5643 81.4479 23.5643 80.835 24.45 79.2387L31.9929 65.6842L39.5357 79.2387C40.4214 80.835 42.4214 81.4621 44.0643 80.6354L56.35 74.5067C58.05 73.6658 58.7357 71.6134 57.8786 69.9173L50.9357 56.0635C52.6071 53.2985 54.2214 51.8732 57.3786 50.1486C59.35 49.0796 60.55 46.9845 60.5071 44.7468C60.4071 40.6705 60.9929 38.5183 63.1214 35.0406C64.2929 33.1307 64.2929 30.722 63.1214 28.8121C60.9929 25.3344 60.4214 23.1822 60.5071 19.1059C60.5643 16.8682 59.35 14.7873 57.3786 13.7041C53.7929 11.7515 52.2071 10.1694 50.25 6.59194C49.1786 4.62505 47.0786 3.42781 44.8357 3.47057C40.75 3.57034 38.5929 2.98597 35.1071 0.862297L35.1357 0.87655ZM32.0071 18.2508C35.6444 18.2508 39.1327 19.6923 41.7046 22.2583C44.2765 24.8244 45.7214 28.3046 45.7214 31.9335C45.7214 35.5624 44.2765 39.0426 41.7046 41.6086C39.1327 44.1746 35.6444 45.6162 32.0071 45.6162C28.3699 45.6162 24.8816 44.1746 22.3097 41.6086C19.7378 39.0426 18.2929 35.5624 18.2929 31.9335C18.2929 28.3046 19.7378 24.8244 22.3097 22.2583C24.8816 19.6923 28.3699 18.2508 32.0071 18.2508Z" fill="#3C3C3C"/>
</svg>
