<svg width="37" height="24" viewBox="0 0 37 24" fill="none" xmlns="http://www.w3.org/2000/svg">
<path d="M36.9508 23.4047L27.7756 7.58991L23.6325 0.248036C23.5617 0.12501 23.4319 0.0496073 23.2942 0.0496073C23.1525 0.0496073 23.0227 0.12501 22.9558 0.248036L20.9099 3.84357L18.8403 0.184539C18.7026 -0.061513 18.2974 -0.061513 18.1597 0.184539L16.0941 3.84754L15.2757 2.40298C15.2757 2.40298 15.2639 2.36726 15.256 2.35535L14.056 0.248036C13.9852 0.12501 13.8553 0.0496073 13.7176 0.0496073C13.576 0.0496073 13.4461 0.12501 13.3793 0.248036L9.2323 7.60182L0.0531157 23.4047C-0.0177052 23.5277 -0.0177052 23.6785 0.0531157 23.8016C0.123937 23.9246 0.253775 24 0.391482 24L10.0743 23.9405L18.498 23.8889L26.9257 23.9405L36.6085 24C36.7502 24 36.8761 23.9246 36.9469 23.8016C37.0177 23.6785 37.0177 23.5277 36.9469 23.4047H36.9508ZM27.6615 19.7735L29.3848 19.7854C29.5264 19.7854 29.6523 19.71 29.7232 19.5869C29.794 19.4639 29.794 19.3131 29.7232 19.1901L24.2424 9.76073L22.5545 6.76048L23.2942 5.47069L25.285 8.99082L32.2924 21.0831L28.4169 21.0712L27.6615 19.7695V19.7735ZM20.544 13.2531C20.5558 13.2729 20.5715 13.2928 20.5873 13.3126L22.6371 16.8685L21.1341 16.8566L20.0404 14.9437C20.0404 14.9437 20.0286 14.9239 20.0246 14.9159L18.9584 13.0547L19.6981 11.7609L20.5479 13.2491L20.544 13.2531ZM23.5421 16.8724L21.2286 12.8562L20.1466 10.9672L20.7328 9.94328L20.8981 9.65358L21.8266 11.3005L24.1676 15.3167C24.1676 15.3167 24.1834 15.3485 24.1873 15.3564L25.0726 16.8843L23.5421 16.8724ZM18.502 13.8444L19.3558 15.3366C19.3558 15.3366 19.3676 15.3564 19.3715 15.3644L20.2213 16.8526L18.5452 16.8407L16.7787 16.8526L17.6285 15.3644C17.6285 15.3644 17.6403 15.3445 17.6482 15.3366L18.502 13.8444ZM18.502 17.6304L20.8981 17.6463L23.3099 17.6622L25.7532 17.678C25.8241 17.678 25.891 17.6582 25.95 17.6225C26.009 17.5907 26.0562 17.5431 26.0916 17.4796C26.1624 17.3566 26.1624 17.2058 26.0916 17.0828L24.8759 14.9913C24.8759 14.9913 24.8601 14.9596 24.8562 14.9477L22.5033 10.9037L21.3505 8.85986L21.681 8.28442L22.0981 7.55817L23.5617 10.1576L28.6962 18.9917L26.9769 18.9797L24.5217 18.9639H23.3925L18.498 18.9282L13.273 18.9599H12.4783V18.9639L10.0231 18.9797L8.30375 18.9917L13.4422 10.1536L14.9058 7.56213L15.6534 8.86383L14.4927 10.9235L10.9123 17.0867C10.8415 17.2098 10.8415 17.3606 10.9123 17.4836C10.9831 17.6066 11.113 17.682 11.2507 17.682L13.694 17.6661L16.1059 17.6503L18.502 17.6344V17.6304ZM15.1301 19.7377L18.498 19.7139L21.8738 19.7377L22.6175 21.0355L18.498 21.0117L14.3865 21.0355L15.1301 19.7377ZM13.7097 5.47863L14.4494 6.76842L12.7576 9.76867L7.28079 19.194C7.20996 19.3171 7.20996 19.4679 7.28079 19.5909C7.35161 19.7139 7.48538 19.7933 7.62309 19.7893L9.34246 19.7774L8.58704 21.0791L4.71156 21.091L11.715 9.00273L13.7097 5.47863ZM16.1019 9.65358L16.8495 10.9592L13.4619 16.8724L11.9314 16.8843L15.1813 11.2966L16.1059 9.65755L16.1019 9.65358ZM18.498 8.08202L17.7387 6.74857L18.498 5.39926L19.2574 6.74461L18.498 8.08202ZM18.502 1.17668L20.4535 4.64126L19.7099 5.94692L18.8403 4.40314C18.7026 4.15709 18.3013 4.15709 18.1597 4.40314L17.2862 5.95089L16.6134 4.76825L16.5426 4.64126L18.498 1.17668H18.502ZM9.90903 7.97884L13.7137 1.24018L14.5557 2.71649C14.5557 2.71649 14.5635 2.73634 14.5714 2.74824L15.7557 4.83572C15.7557 4.83572 15.7557 4.83572 15.7557 4.83969L16.1649 5.56197L18.0456 8.87177L17.3019 10.1695L16.4403 8.66143L15.4095 6.86366L15.2599 6.60174C15.2599 6.60174 15.2481 6.57793 15.2403 6.56602L14.0481 4.48648C13.9773 4.36346 13.8514 4.29202 13.7097 4.29202C13.6232 4.29202 13.5445 4.32377 13.4776 4.37536C13.4343 4.40711 13.3989 4.4468 13.3714 4.49442L11.0972 8.51856L3.68859 21.2895C3.61777 21.4125 3.61777 21.5633 3.68859 21.6863C3.75941 21.8093 3.88925 21.8847 4.02696 21.8847L8.80737 21.8689C8.94508 21.8689 9.08278 21.7816 9.15361 21.6625L10.2513 19.7735L11.7976 19.7616L9.84608 23.1547L1.07215 23.2063L9.90903 7.97884ZM18.498 23.1031L10.7549 23.1468L11.2704 22.2538L12.7065 19.7536L13.7294 19.7457H14.2252L13.395 21.1902L13.3674 21.2458C13.3006 21.3688 13.3045 21.5157 13.3753 21.6347C13.4461 21.7538 13.5799 21.8252 13.7137 21.8252L18.502 21.7974L23.2981 21.8252C23.4358 21.8252 23.5617 21.7538 23.6325 21.6347C23.7034 21.5157 23.7073 21.3688 23.6404 21.2458L22.7788 19.7417H23.2588L24.2935 19.7496L26.2451 23.1428L18.4941 23.0991L18.498 23.1031ZM27.1579 23.1507L25.2063 19.7576L26.7526 19.7695L27.8503 21.6585C27.8503 21.6585 27.8661 21.6863 27.8739 21.6943C27.9487 21.8014 28.0667 21.8689 28.1966 21.8689L32.977 21.8847C33.1147 21.8847 33.2445 21.8093 33.3153 21.6863C33.3862 21.5633 33.3862 21.4125 33.3153 21.2895L25.9657 8.6019L23.6365 4.49045C23.5657 4.36742 23.4398 4.29202 23.2981 4.29202C23.1447 4.29996 23.0266 4.36742 22.9598 4.48648L21.7676 6.56602L20.5676 8.66143L19.3597 10.7687C19.3518 10.7846 19.3439 10.8005 19.3361 10.8164L19.0095 11.3878L18.1675 12.8562C18.1675 12.8562 18.1675 12.8562 18.1675 12.8602L16.9911 14.9119C16.9911 14.9119 16.9793 14.9318 16.9714 14.9397L15.8777 16.8526H15.6888L14.3747 16.8645L16.4206 13.3126C16.4206 13.3126 16.4521 13.2729 16.4639 13.2491L17.6521 11.1735C17.6639 11.1537 17.6718 11.1339 17.6797 11.11L20.0482 6.94304C20.0482 6.94304 20.0482 6.94304 20.0482 6.93907L21.2443 4.83969C21.2443 4.83969 21.2482 4.82381 21.2522 4.81588L23.2863 1.23621L27.0949 7.97884L35.9278 23.1983L27.1539 23.1468L27.1579 23.1507Z" fill="#E8E8E8"/>
</svg>
